{
.appVersion = "3151";
.formatVersion = 3;
date = "2023-09-04 16:21:44 +0000";
familyName = Olli;
fontMaster = (
{
id = m01;
metricValues = (
{
over = 16;
pos = 750;
},
{
over = 16;
pos = 700;
},
{
over = 16;
pos = 550;
},
{
over = -16;
},
{
over = -16;
pos = -200;
}
);
name = Regular;
userData = {
GSExtrudeAngle = 30;
GSExtrudeOffset = 15;
GSOffsetHorizontal = 30;
GSOffsetVertical = 20;
};
}
);
glyphs = (
{
glyphname = A;
lastChange = "2023-09-05 09:42:36 +0000";
layers = (
{
layerId = m01;
shapes = (
{
closed = 1;
nodes = (
(95,0,l),
(144,140,l),
(459,140,l),
(505,0,l),
(590,0,l),
(339,700,l),
(273,700,l),
(10,0,l)
);
},
{
closed = 1;
nodes = (
(305,603,l),
(435,210,l),
(168,210,l)
);
}
);
width = 600;
},
{
associatedMasterId = m01;
layerId = "6A2AA525-7548-4F44-B8B0-E43C70B7019B";
name = "5. Sept. 23, 11:28";
shapes = (
{
closed = 1;
nodes = (
(51,0,l),
(104,142,l),
(500,142,l),
(551,0,l),
(572,0,l),
(320,701,l),
(293,701,l),
(29,0,l)
);
},
{
closed = 1;
nodes = (
(306,680,l),
(492,162,l),
(111,162,l)
);
}
);
width = 600;
},
{
associatedMasterId = m01;
layerId = "37C719F9-12C9-4D3A-AAE2-436CAA942075";
name = "5. Sept. 23, 11:30";
shapes = (
{
closed = 1;
nodes = (
(149,0,l),
(194,121,l),
(409,121,l),
(451,0,l),
(634,0,l),
(380,700,l),
(231,700,l),
(-34,0,l)
);
},
{
closed = 1;
nodes = (
(303,498,l),
(382,261,l),
(222,261,l)
);
}
);
width = 600;
}
);
unicode = 65;
},
{
glyphname = AE;
lastChange = "2023-09-06 20:41:38 +0000";
layers = (
{
layerId = m01;
shapes = (
{
closed = 1;
nodes = (
(133,0,l),
(198,140,l),
(494,140,l),
(470,0,l),
(555,0,l),
(504,700,l),
(368,700,l),
(45,0,l)
);
},
{
closed = 1;
nodes = (
(424,620,l),
(475,620,l),
(470,210,l),
(230,210,l)
);
},
{
closed = 1;
nodes = (
(844,0,l),
(844,80,l),
(550,80,l),
(550,320,l),
(844,320,l),
(844,400,l),
(550,400,l),
(550,620,l),
(844,620,l),
(844,700,l),
(470,700,l),
(470,0,l)
);
}
);
width = 889;
}
);
unicode = 198;
},
{
glyphname = B;
lastChange = "2023-09-05 08:57:16 +0000";
layers = (
{
layerId = m01;
shapes = (
{
closed = 1;
nodes = (
(333,0,ls),
(465,0,o),
(538,75,o),
(538,209,cs),
(538,285,o),
(502,338,o),
(434,363,c),
(489,391,o),
(518,444,o),
(518,519,cs),
(518,635,o),
(445,700,o),
(313,700,cs),
(89,700,l),
(89,0,l)
);
},
{
closed = 1;
nodes = (
(167,322,l),
(323,322,ls),
(410,322,o),
(459,280,o),
(459,209,cs),
(459,126,o),
(414,78,o),
(333,78,cs),
(167,78,l)
);
},
{
closed = 1;
nodes = (
(167,622,l),
(313,622,ls),
(394,622,o),
(439,584,o),
(439,519,cs),
(439,443,o),
(398,398,o),
(323,398,cs),
(167,398,l)
);
}
);
width = 600;
}
);
unicode = 66;
},
{
glyphname = C;
lastChange = "2023-09-05 08:57:16 +0000";
layers = (
{
layerId = m01;
shapes = (
{
closed = 1;
nodes = (
(426,-8,o),
(507,18,o),
(554,65,c),
(554,155,l),
(501,102,o),
(420,72,o),
(327,72,cs),
(207,72,o),
(141,177,o),
(141,365,cs),
(141,535,o),
(207,630,o),
(327,630,cs),
(430,630,o),
(487,587,o),
(487,510,c),
(567,510,l),
(567,639,o),
(481,710,o),
(327,710,cs),
(156,710,o),
(61,587,o),
(61,365,cs),
(61,125,o),
(156,-8,o),
(327,-8,cs)
);
}
);
width = 610;
}
);
unicode = 67;
},
{
glyphname = D;
lastChange = "2023-09-05 08:57:16 +0000";
layers = (
{
layerId = m01;
shapes = (
{
closed = 1;
nodes = (
(509,0,o),
(609,126,o),
(609,353,cs),
(609,576,o),
(509,700,o),
(328,700,cs),
(89,700,l),
(89,0,l),
(328,0,ls)
);
},
{
closed = 1;
nodes = (
(169,620,l),
(328,620,ls),
(457,620,o),
(529,525,o),
(529,353,cs),
(529,178,o),
(457,80,o),
(328,80,cs),
(169,80,l)
);
}
);
width = 658;
}
);
unicode = 68;
},
{
glyphname = Eth;
lastChange = "2023-09-06 20:48:31 +0000";
layers = (
{
layerId = m01;
shapes = (
{
ref = D;
},
{
closed = 1;
nodes = (
(0,324,l),
(263,324,l),
(263,384,l),
(0,384,l)
);
}
);
width = 658;
}
);
unicode = 208;
},
{
glyphname = E;
lastChange = "2023-09-05 10:19:58 +0000";
layers = (
{
layerId = m01;
shapes = (
{
closed = 1;
nodes = (
(463,0,l),
(463,80,l),
(169,80,l),
(169,320,l),
(463,320,l),
(463,400,l),
(169,400,l),
(169,620,l),
(463,620,l),
(463,700,l),
(89,700,l),
(89,0,l)
);
}
);
width = 530;
}
);
unicode = 69;
},
{
glyphname = F;
lastChange = "2023-09-05 10:19:55 +0000";
layers = (
{
layerId = m01;
shapes = (
{
closed = 1;
nodes = (
(169,0,l),
(169,320,l),
(463,320,l),
(463,400,l),
(169,400,l),
(169,620,l),
(463,620,l),
(463,700,l),
(89,700,l),
(89,0,l)
);
}
);
width = 530;
}
);
unicode = 70;
},
{
glyphname = G;
lastChange = "2023-09-05 08:57:16 +0000";
layers = (
{
layerId = m01;
shapes = (
{
closed = 1;
nodes = (
(455,-8,o),
(543,32,o),
(594,105,c),
(594,370,l),
(320,370,l),
(320,295,l),
(519,295,l),
(519,122,l),
(470,88,o),
(411,69,o),
(347,69,cs),
(215,69,o),
(138,173,o),
(138,355,cs),
(138,532,o),
(215,633,o),
(347,633,cs),
(450,633,o),
(510,587,o),
(510,510,c),
(587,510,l),
(587,639,o),
(501,710,o),
(347,710,cs),
(163,710,o),
(61,583,o),
(61,355,cs),
(61,122,o),
(163,-8,o),
(347,-8,cs)
);
}
);
width = 649;
}
);
unicode = 71;
},
{
glyphname = H;
lastChange = "2023-09-06 18:11:07 +0000";
layers = (
{
layerId = m01;
shapes = (
{
closed = 1;
nodes = (
(609,0,l),
(609,700,l),
(529,700,l),
(529,400,l),
(169,400,l),
(169,700,l),
(89,700,l),
(89,0,l),
(169,0,l),
(169,320,l),
(529,320,l),
(529,0,l)
);
}
);
width = 698;
}
);
unicode = 72;
},
{
glyphname = I;
lastChange = "2023-09-05 08:57:16 +0000";
layers = (
{
layerId = m01;
shapes = (
{
closed = 1;
nodes = (
(179,0,l),
(179,700,l),
(99,700,l),
(99,0,l)
);
}
);
width = 278;
}
);
unicode = 73;
},
{
glyphname = IJ;
lastChange = "2023-09-06 20:50:55 +0000";
layers = (
{
layerId = m01;
shapes = (
{
closed = 1;
nodes = (
(179,0,l),
(179,700,l),
(99,700,l),
(99,0,l)
);
},
{
pos = (234,0);
ref = J;
}
);
width = 512;
}
);
unicode = 306;
},
{
glyphname = J;
lastChange = "2023-09-05 08:57:16 +0000";
layers = (
{
layerId = m01;
shapes = (
{
closed = 1;
nodes = (
(99,-84,o),
(65,-131,o),
(3,-131,c),
(3,-211,l),
(116,-211,o),
(179,-136,o),
(179,0,cs),
(179,700,l),
(99,700,l),
(99,0,ls)
);
}
);
width = 268;
}
);
unicode = 74;
},
{
glyphname = K;
lastChange = "2023-09-05 08:57:16 +0000";
layers = (
{
layerId = m01;
shapes = (
{
closed = 1;
nodes = (
(568,0,l),
(273,361,l),
(565,700,l),
(462,700,l),
(169,362,l),
(169,700,l),
(89,700,l),
(89,0,l),
(169,0,l),
(169,360,l),
(464,0,l)
);
}
);
width = 590;
}
);
unicode = 75;
},
{
glyphname = L;
lastChange = "2023-09-05 08:57:16 +0000";
layers = (
{
layerId = m01;
shapes = (
{
closed = 1;
nodes = (
(496,0,l),
(496,80,l),
(169,80,l),
(169,700,l),
(89,700,l),
(89,0,l)
);
}
);
width = 530;
}
);
unicode = 76;
},
{
glyphname = M;
lastChange = "2023-09-05 08:57:16 +0000";
layers = (
{
layerId = m01;
shapes = (
{
closed = 1;
nodes = (
(454,0,l),
(660,511,l),
(660,0,l),
(740,0,l),
(740,700,l),
(660,700,l),
(416,93,l),
(174,700,l),
(89,700,l),
(89,0,l),
(159,0,l),
(159,525,l),
(369,0,l)
);
}
);
width = 829;
}
);
unicode = 77;
},
{
glyphname = N;
lastChange = "2023-09-05 08:57:16 +0000";
layers = (
{
layerId = m01;
shapes = (
{
closed = 1;
nodes = (
(610,0,l),
(610,700,l),
(530,700,l),
(530,130,l),
(179,700,l),
(90,700,l),
(90,0,l),
(170,0,l),
(170,570,l),
(521,0,l)
);
}
);
width = 700;
}
);
unicode = 78;
},
{
glyphname = O;
lastChange = "2023-09-05 08:57:16 +0000";
layers = (
{
layerId = m01;
shapes = (
{
closed = 1;
nodes = (
(534,-8,o),
(636,121,o),
(636,353,cs),
(636,582,o),
(534,710,o),
(350,710,cs),
(166,710,o),
(64,585,o),
(64,361,cs),
(64,124,o),
(166,-8,o),
(350,-8,cs)
);
},
{
closed = 1;
nodes = (
(144,534,o),
(218,630,o),
(350,630,cs),
(482,630,o),
(556,531,o),
(556,353,cs),
(556,172,o),
(482,72,o),
(350,72,cs),
(218,72,o),
(144,175,o),
(144,361,cs)
);
}
);
width = 700;
}
);
unicode = 79;
},
{
glyphname = Oslash;
lastChange = "2023-09-06 20:56:27 +0000";
layers = (
{
layerId = m01;
shapes = (
{
ref = O;
},
{
closed = 1;
nodes = (
(44,0,l),
(119,0,l),
(656,700,l),
(581,700,l)
);
}
);
width = 700;
}
);
unicode = 216;
},
{
glyphname = OE;
lastChange = "2023-09-06 20:42:52 +0000";
layers = (
{
layerId = m01;
shapes = (
{
closed = 1;
nodes = (
(912,0,l),
(912,80,l),
(618,80,l),
(618,320,l),
(912,320,l),
(912,400,l),
(618,400,l),
(618,620,l),
(912,620,l),
(912,700,l),
(538,700,l),
(538,0,l)
);
},
{
closed = 1;
nodes = (
(516,-8,o),
(618,121,o),
(618,353,cs),
(618,582,o),
(516,710,o),
(332,710,cs),
(148,710,o),
(46,585,o),
(46,361,cs),
(46,124,o),
(148,-8,o),
(332,-8,cs)
);
},
{
closed = 1;
nodes = (
(126,534,o),
(200,630,o),
(332,630,cs),
(464,630,o),
(538,531,o),
(538,353,cs),
(538,172,o),
(464,72,o),
(332,72,cs),
(200,72,o),
(126,175,o),
(126,361,cs)
);
}
);
width = 979;
}
);
unicode = 338;
},
{
glyphname = P;
lastChange = "2023-09-05 20:03:29 +0000";
layers = (
{
layerId = m01;
shapes = (
{
closed = 1;
nodes = (
(169,0,l),
(169,290,l),
(323,290,ls),
(462,290,o),
(539,360,o),
(539,486,cs),
(539,624,o),
(465,700,o),
(333,700,cs),
(89,700,l),
(89,0,l)
);
},
{
closed = 1;
nodes = (
(169,620,l),
(333,620,ls),
(414,620,o),
(459,572,o),
(459,486,cs),
(459,411,o),
(410,370,o),
(323,370,cs),
(169,370,l)
);
}
);
width = 571;
}
);
unicode = 80;
},
{
glyphname = Thorn;
lastChange = "2023-09-06 20:44:01 +0000";
layers = (
{
layerId = m01;
shapes = (
{
closed = 1;
nodes = (
(169,0,l),
(169,140,l),
(323,140,ls),
(462,140,o),
(539,210,o),
(539,336,cs),
(539,474,o),
(465,550,o),
(333,550,cs),
(169,550,l),
(169,700,l),
(89,700,l),
(89,0,l)
);
},
{
closed = 1;
nodes = (
(169,470,l),
(333,470,ls),
(414,470,o),
(459,422,o),
(459,336,cs),
(459,261,o),
(410,220,o),
(323,220,cs),
(169,220,l)
);
}
);
width = 600;
}
);
unicode = 222;
},
{
glyphname = Q;
lastChange = "2023-09-05 08:57:16 +0000";
layers = (
{
layerId = m01;
shapes = (
{
closed = 1;
nodes = (
(624,-200,l),
(443,1,l),
(581,35,o),
(656,158,o),
(656,353,cs),
(656,582,o),
(550,710,o),
(360,710,cs),
(170,710,o),
(64,585,o),
(64,361,cs),
(64,126,o),
(168,-6,o),
(355,-8,c),
(518,-200,l)
);
},
{
closed = 1;
nodes = (
(144,534,o),
(221,630,o),
(360,630,cs),
(499,630,o),
(576,531,o),
(576,353,cs),
(576,172,o),
(499,72,o),
(360,72,cs),
(221,72,o),
(144,175,o),
(144,361,cs)
);
}
);
width = 710;
}
);
unicode = 81;
},
{
glyphname = R;
lastChange = "2023-09-05 08:57:16 +0000";
layers = (
{
layerId = m01;
shapes = (
{
closed = 1;
nodes = (
(554,0,l),
(373,303,l),
(480,318,o),
(539,384,o),
(539,491,cs),
(539,625,o),
(465,700,o),
(333,700,cs),
(89,700,l),
(89,0,l),
(169,0,l),
(169,300,l),
(288,300,l),
(458,0,l)
);
},
{
closed = 1;
nodes = (
(169,620,l),
(333,620,ls),
(414,620,o),
(459,574,o),
(459,491,cs),
(459,420,o),
(410,380,o),
(323,380,cs),
(169,380,l)
);
}
);
width = 600;
}
);
unicode = 82;
},
{
glyphname = S;
lastChange = "2023-09-05 10:19:02 +0000";
layers = (
{
layerId = m01;
shapes = (
{
closed = 1;
nodes = (
(413,115,o),
(363,72,o),
(273,72,cs),
(186,72,o),
(137,115,o),
(137,193,c),
(57,193,l),
(57,64,o),
(134,-8,o),
(273,-8,cs),
(414,-8,o),
(493,64,o),
(493,193,cs),
(493,412,o),
(138,378,o),
(138,523,cs),
(138,591,o),
(186,629,o),
(273,629,cs),
(354,629,o),
(399,591,o),
(399,523,c),
(479,523,l),
(479,643,o),
(405,709,o),
(273,709,cs),
(135,709,o),
(58,643,o),
(58,523,cs),
(58,294,o),
(413,338,o),
(413,193,cs)
);
}
);
width = 550;
}
);
unicode = 83;
},
{
glyphname = Germandbls;
lastChange = "2023-09-06 20:36:23 +0000";
layers = (
{
layerId = m01;
shapes = (
{
closed = 1;
nodes = (
(473,-8,o),
(545,53,o),
(545,163,cs),
(545,303,o),
(375,278,o),
(375,348,cs),
(375,418,o),
(512,402,o),
(512,542,cs),
(512,644,o),
(442,700,o),
(315,700,c),
(86,700,l),
(86,0,l),
(166,0,l),
(166,620,l),
(315,620,l),
(390,620,o),
(432,592,o),
(432,542,cs),
(432,441,o),
(295,478,o),
(295,348,cs),
(295,218,o),
(465,243,o),
(465,163,cs),
(465,105,o),
(422,72,o),
(344,72,cs),
(307,72,o),
(275,83,o),
(256,102,c),
(256,22,l),
(275,3,o),
(307,-8,o),
(344,-8,cs)
);
}
);
width = 610;
}
);
unicode = 7838;
},
{
glyphname = T;
lastChange = "2023-09-05 08:57:16 +0000";
layers = (
{
layerId = m01;
shapes = (
{
closed = 1;
nodes = (
(310,0,l),
(310,620,l),
(513,620,l),
(513,700,l),
(26,700,l),
(26,620,l),
(230,620,l),
(230,0,l)
);
}
);
width = 539;
}
);
unicode = 84;
},
{
glyphname = U;
lastChange = "2023-09-05 08:57:16 +0000";
layers = (
{
layerId = m01;
shapes = (
{
closed = 1;
nodes = (
(498,-8,o),
(586,85,o),
(586,253,cs),
(586,700,l),
(506,700,l),
(506,253,ls),
(506,137,o),
(447,72,o),
(340,72,cs),
(233,72,o),
(174,140,o),
(174,261,cs),
(174,700,l),
(94,700,l),
(94,261,ls),
(94,88,o),
(182,-8,o),
(340,-8,cs)
);
}
);
width = 680;
}
);
unicode = 85;
},
{
glyphname = V;
lastChange = "2023-09-05 08:57:16 +0000";
layers = (
{
layerId = m01;
shapes = (
{
closed = 1;
nodes = (
(331,0,l),
(562,700,l),
(476,700,l),
(290,114,l),
(94,700,l),
(8,700,l),
(251,0,l)
);
}
);
width = 570;
}
);
unicode = 86;
},
{
glyphname = W;
lastChange = "2023-09-05 10:19:38 +0000";
layers = (
{
layerId = m01;
shapes = (
{
closed = 1;
nodes = (
(257,0,l),
(385,582,l),
(523,0,l),
(609,0,l),
(790,700,l),
(705,700,l),
(566,114,l),
(427,700,l),
(342,700,l),
(213,114,l),
(64,700,l),
(-19,700,l),
(174,0,l)
);
}
);
width = 771;
}
);
unicode = 87;
},
{
glyphname = X;
lastChange = "2023-09-05 08:57:16 +0000";
layers = (
{
layerId = m01;
shapes = (
{
closed = 1;
nodes = (
(567,0,l),
(337,371,l),
(569,700,l),
(475,700,l),
(290,439,l),
(111,700,l),
(10,700,l),
(242,371,l),
(19,0,l),
(112,0,l),
(290,293,l),
(467,0,l)
);
}
);
width = 580;
}
);
unicode = 88;
},
{
glyphname = Y;
lastChange = "2023-09-05 08:57:16 +0000";
layers = (
{
layerId = m01;
shapes = (
{
closed = 1;
nodes = (
(233,0,l),
(313,0,l),
(315,277,l),
(547,700,l),
(456,700,l),
(275,354,l),
(94,700,l),
(3,700,l),
(235,277,l)
);
}
);
width = 550;
}
);
unicode = 89;
},
{
glyphname = Z;
lastChange = "2023-09-05 08:57:16 +0000";
layers = (
{
layerId = m01;
shapes = (
{
closed = 1;
nodes = (
(522,0,l),
(522,80,l),
(149,80,l),
(341,371,l),
(553,700,l),
(47,700,l),
(47,620,l),
(412,620,l),
(255,371,l),
(7,0,l)
);
}
);
width = 560;
}
);
unicode = 90;
},
{
glyphname = a;
lastChange = "2023-09-06 18:36:01 +0000";
layers = (
{
layerId = m01;
shapes = (
{
closed = 1;
nodes = (
(462,0,l),
(462,380,ls),
(462,494,o),
(395,558,o),
(275,558,cs),
(200,558,o),
(139,535,o),
(104,494,c),
(104,413,l),
(143,461,o),
(204,488,o),
(275,488,cs),
(350,488,o),
(392,449,o),
(392,380,cs),
(392,328,l),
(181,322,o),
(64,260,o),
(64,154,cs),
(64,51,o),
(134,-7,o),
(241,-7,cs),
(294,-7,o),
(342,19,o),
(392,65,c),
(392,0,l)
);
},
{
closed = 1;
nodes = (
(131,224,o),
(224,266,o),
(392,271,c),
(392,125,l),
(347,83,o),
(300,60,o),
(241,60,cs),
(177,60,o),
(131,94,o),
(131,154,cs)
);
}
);
width = 548;
},
{
associatedMasterId = m01;
layerId = "378FBBDC-189B-44B7-92D3-4CA72B21CB6E";
name = "5. Sept. 23, 11:47";
shapes = (
{
closed = 1;
nodes = (
(452,0,l),
(452,390,ls),
(452,499,o),
(389,559,o),
(276,559,cs),
(199,559,o),
(138,541,o),
(106,508,c),
(106,486,l),
(139,520,o),
(200,539,o),
(276,539,cs),
(376,539,o),
(432,486,o),
(432,390,cs),
(432,313,l),
(201,311,o),
(72,250,o),
(72,142,cs),
(72,46,o),
(128,-7,o),
(228,-7,cs),
(308,-7,o),
(381,22,o),
(432,74,c),
(432,0,l)
);
},
{
closed = 1;
nodes = (
(92,237,o),
(213,291,o),
(432,293,c),
(432,98,l),
(378,43,o),
(305,13,o),
(228,13,cs),
(141,13,o),
(92,59,o),
(92,142,cs)
);
}
);
width = 548;
},
{
associatedMasterId = m01;
layerId = "F14E1DA7-1D25-421F-8E76-BB1DFC615F8A";
name = "5. Sept. 23, 11:51";
shapes = (
{
closed = 1;
nodes = (
(471,0,l),
(471,371,ls),
(471,487,o),
(401,551,o),
(274,551,cs),
(190,551,o),
(125,525,o),
(91,478,c),
(91,381,l),
(140,369,l),
(162,412,o),
(210,436,o),
(274,436,cs),
(312,436,o),
(333,413,o),
(333,371,cs),
(333,335,l),
(154,326,o),
(55,263,o),
(55,158,cs),
(55,51,o),
(123,-8,o),
(244,-8,cs),
(295,-8,o),
(332,12,o),
(348,49,c),
(368,0,l)
);
},
{
closed = 1;
nodes = (
(185,209,o),
(238,241,o),
(333,247,c),
(333,132,l),
(307,104,o),
(276,89,o),
(244,89,cs),
(206,89,o),
(185,114,o),
(185,158,cs)
);
}
);
width = 548;
}
);
unicode = 97;
},
{
glyphname = ae;
lastChange = "2023-09-06 06:20:00 +0000";
layers = (
{
layerId = m01;
shapes = (
{
closed = 1;
nodes = (
(452,272,l),
(452,380,ls),
(452,495,o),
(395,558,o),
(275,558,cs),
(200,558,o),
(139,535,o),
(104,494,c),
(104,413,l),
(143,461,o),
(204,488,o),
(275,488,cs),
(350,488,o),
(392,449,o),
(392,380,cs),
(392,323,l),
(181,317,o),
(64,260,o),
(64,154,cs),
(64,51,o),
(124,-7,o),
(231,-7,cs),
(284,-7,o),
(342,19,o),
(392,65,c),
(459,121,l)
);
},
{
closed = 1;
nodes = (
(131,224,o),
(224,266,o),
(392,271,c),
(392,125,l),
(347,83,o),
(290,60,o),
(231,60,cs),
(167,60,o),
(131,94,o),
(131,154,cs)
);
},
{
closed = 1;
nodes = (
(708,-8,o),
(778,18,o),
(825,65,c),
(825,145,l),
(772,92,o),
(701,62,o),
(628,62,cs),
(533,62,o),
(474,132,o),
(464,250,c),
(800,245,l),
(838,275,l),
(838,458,o),
(763,560,o),
(628,560,cs),
(476,560,o),
(402,460,o),
(402,280,cs),
(402,95,o),
(476,-8,o),
(628,-8,cs)
);
},
{
closed = 1;
nodes = (
(468,424,o),
(527,490,o),
(628,490,cs),
(714,490,o),
(764,424,o),
(767,305,c),
(462,305,l)
);
}
);
width = 902;
}
);
unicode = 230;
},
{
glyphname = b;
lastChange = "2023-09-05 10:07:13 +0000";
layers = (
{
layerId = m01;
shapes = (
{
closed = 1;
nodes = (
(156,0,l),
(156,36,l),
(194,9,o),
(245,-6,o),
(298,-6,cs),
(450,-6,o),
(534,96,o),
(534,280,cs),
(534,459,o),
(450,558,o),
(298,558,cs),
(242,558,o),
(191,535,o),
(156,494,c),
(156,750,l),
(86,750,l),
(86,0,l)
);
},
{
closed = 1;
nodes = (
(156,423,l),
(190,465,o),
(241,488,o),
(298,488,cs),
(405,488,o),
(464,414,o),
(464,280,cs),
(464,141,o),
(405,64,o),
(298,64,cs),
(253,64,o),
(202,75,o),
(156,96,c)
);
}
);
width = 600;
}
);
unicode = 98;
},
{
glyphname = c;
lastChange = "2023-09-05 09:26:11 +0000";
layers = (
{
layerId = m01;
shapes = (
{
closed = 1;
nodes = (
(382,-8,o),
(452,18,o),
(499,65,c),
(499,145,l),
(446,92,o),
(375,62,o),
(302,62,cs),
(195,62,o),
(136,140,o),
(136,280,cs),
(136,415,o),
(195,490,o),
(302,490,cs),
(386,490,o),
(432,447,o),
(432,370,c),
(502,370,l),
(502,492,o),
(431,560,o),
(302,560,cs),
(150,560,o),
(66,460,o),
(66,280,cs),
(66,95,o),
(150,-8,o),
(302,-8,cs)
);
}
);
width = 568;
},
{
associatedMasterId = m01;
layerId = "4B991926-2E11-4E01-9571-E498AC9A6370";
name = "5. Sept. 23, 11:23";
shapes = (
{
closed = 1;
nodes = (
(395,7,o),
(472,38,o),
(514,94,c),
(514,222,l),
(464,233,l),
(421,169,o),
(362,134,o),
(299,134,cs),
(244,134,o),
(214,186,o),
(214,280,cs),
(214,369,o),
(244,418,o),
(299,418,cs),
(338,418,o),
(360,383,o),
(360,319,c),
(522,319,l),
(522,464,o),
(442,545,o),
(299,545,cs),
(140,545,o),
(52,450,o),
(52,280,cs),
(52,105,o),
(140,7,o),
(299,7,cs)
);
}
);
width = 568;
}
);
unicode = 99;
},
{
glyphname = d;
lastChange = "2023-09-05 08:57:16 +0000";
layers = (
{
layerId = m01;
shapes = (
{
closed = 1;
nodes = (
(514,0,l),
(514,750,l),
(444,750,l),
(444,494,l),
(409,535,o),
(358,558,o),
(302,558,cs),
(150,558,o),
(66,459,o),
(66,280,cs),
(66,96,o),
(150,-6,o),
(302,-6,cs),
(356,-6,o),
(406,9,o),
(444,36,c),
(444,0,l)
);
},
{
closed = 1;
nodes = (
(136,414,o),
(195,488,o),
(302,488,cs),
(359,488,o),
(410,465,o),
(444,423,c),
(444,97,l),
(409,76,o),
(360,64,o),
(302,64,cs),
(195,64,o),
(136,141,o),
(136,280,cs)
);
}
);
width = 600;
}
);
unicode = 100;
},
{
glyphname = eth;
lastChange = "2023-09-06 20:33:32 +0000";
layers = (
{
layerId = m01;
shapes = (
{
closed = 1;
nodes = (
(446,-7,o),
(528,125,o),
(528,363,cs),
(528,583,o),
(444,758,o),
(297,758,c),
(297,688,l),
(399,688,o),
(458,538,o),
(458,363,cs),
(458,170,o),
(401,63,o),
(299,63,cs),
(199,63,o),
(143,123,o),
(143,231,cs),
(143,315,o),
(199,361,o),
(299,361,cs),
(392,361,o),
(443,310,o),
(443,219,c),
(513,219,l),
(513,355,o),
(437,431,o),
(299,431,cs),
(154,431,o),
(73,360,o),
(73,231,cs),
(73,78,o),
(154,-7,o),
(299,-7,cs)
);
},
{
closed = 1;
nodes = (
(560,680,l),
(519,723,l),
(337,547,l),
(379,504,l)
);
}
);
width = 600;
}
);
unicode = 240;
},
{
glyphname = e;
lastChange = "2023-09-05 10:08:30 +0000";
layers = (
{
layerId = m01;
shapes = (
{
closed = 1;
nodes = (
(382,-8,o),
(452,18,o),
(499,65,c),
(499,145,l),
(446,92,o),
(375,62,o),
(302,62,cs),
(207,62,o),
(148,127,o),
(138,245,c),
(474,245,l),
(512,275,l),
(512,458,o),
(437,560,o),
(302,560,cs),
(150,560,o),
(66,460,o),
(66,280,cs),
(66,95,o),
(150,-8,o),
(302,-8,cs)
);
},
{
closed = 1;
nodes = (
(142,424,o),
(201,490,o),
(302,490,cs),
(388,490,o),
(438,424,o),
(441,305,c),
(136,305,l)
);
}
);
width = 574;
}
);
unicode = 101;
},
{
glyphname = f;
lastChange = "2023-09-05 08:57:16 +0000";
layers = (
{
layerId = m01;
shapes = (
{
closed = 1;
nodes = (
(206,0,l),
(206,480,l),
(330,480,l),
(330,550,l),
(206,550,l),
(206,563,ls),
(206,643,o),
(248,688,o),
(323,688,cs),
(377,688,l),
(377,758,l),
(323,758,ls),
(203,758,o),
(136,688,o),
(136,563,cs),
(136,550,l),
(24,550,l),
(24,480,l),
(136,480,l),
(136,0,l)
);
}
);
width = 371;
}
);
unicode = 102;
},
{
glyphname = g;
lastChange = "2023-09-05 10:06:34 +0000";
layers = (
{
layerId = m01;
shapes = (
{
closed = 1;
nodes = (
(453,-88,o),
(399,-138,o),
(302,-138,cs),
(215,-138,o),
(167,-102,o),
(167,-37,c),
(97,-37,l),
(97,-147,o),
(170,-208,o),
(302,-208,cs),
(444,-208,o),
(523,-133,o),
(523,3,cs),
(523,550,l),
(453,550,l),
(453,514,l),
(415,541,o),
(361,556,o),
(302,556,cs),
(156,556,o),
(75,463,o),
(75,295,cs),
(75,126,o),
(156,32,o),
(302,32,cs),
(355,32,o),
(409,48,o),
(453,76,c),
(453,3,ls)
);
},
{
closed = 1;
nodes = (
(145,418,o),
(201,486,o),
(302,486,cs),
(364,486,o),
(418,474,o),
(453,453,c),
(453,137,l),
(420,115,o),
(366,102,o),
(302,102,cs),
(201,102,o),
(145,171,o),
(145,295,cs)
);
}
);
width = 608;
}
);
unicode = 103;
},
{
glyphname = h;
lastChange = "2023-09-05 08:57:16 +0000";
layers = (
{
layerId = m01;
shapes = (
{
closed = 1;
nodes = (
(156,0,l),
(156,413,l),
(195,461,o),
(252,488,o),
(318,488,cs),
(399,488,o),
(444,435,o),
(444,340,cs),
(444,0,l),
(514,0,l),
(514,340,ls),
(514,480,o),
(444,558,o),
(318,558,cs),
(249,558,o),
(191,535,o),
(156,494,c),
(156,750,l),
(86,750,l),
(86,0,l)
);
}
);
width = 600;
}
);
unicode = 104;
},
{
glyphname = i;
lastChange = "2023-09-05 08:57:16 +0000";
layers = (
{
layerId = m01;
shapes = (
{
closed = 1;
nodes = (
(176,0,l),
(176,550,l),
(106,550,l),
(106,0,l)
);
},
{
closed = 1;
nodes = (
(86,668,o),
(111,643,o),
(142,643,cs),
(172,643,o),
(197,668,o),
(197,699,cs),
(197,729,o),
(172,754,o),
(142,754,cs),
(111,754,o),
(86,729,o),
(86,699,cs)
);
}
);
width = 283;
}
);
unicode = 105;
},
{
glyphname = idotless;
lastChange = "2023-09-06 20:20:25 +0000";
layers = (
{
layerId = m01;
shapes = (
{
closed = 1;
nodes = (
(176,0,l),
(176,550,l),
(106,550,l),
(106,0,l)
);
}
);
width = 282;
}
);
unicode = 305;
},
{
glyphname = ij;
lastChange = "2023-09-06 20:30:53 +0000";
layers = (
{
layerId = m01;
shapes = (
{
ref = i;
},
{
closed = 1;
nodes = (
(300,0,l),
(300,-83,ls),
(300,-123,o),
(280,-146,o),
(244,-146,c),
(244,-216,l),
(325,-216,o),
(370,-168,o),
(370,-83,cs),
(370,0,l),
(369,0,l),
(369,550,l),
(299,550,l),
(299,0,l)
);
},
{
closed = 1;
nodes = (
(279,663,o),
(299,643,o),
(335,643,cs),
(371,643,o),
(390,663,o),
(390,699,cs),
(390,735,o),
(371,754,o),
(335,754,cs),
(299,754,o),
(279,735,o),
(279,699,cs)
);
}
);
width = 476;
}
);
unicode = 307;
},
{
glyphname = j;
lastChange = "2023-09-05 08:57:16 +0000";
layers = (
{
layerId = m01;
shapes = (
{
closed = 1;
nodes = (
(100,0,l),
(100,-83,ls),
(100,-123,o),
(80,-146,o),
(44,-146,c),
(44,-216,l),
(125,-216,o),
(170,-168,o),
(170,-83,cs),
(170,0,l),
(169,0,l),
(169,550,l),
(99,550,l),
(99,0,l)
);
},
{
closed = 1;
nodes = (
(79,663,o),
(99,643,o),
(135,643,cs),
(171,643,o),
(190,663,o),
(190,699,cs),
(190,735,o),
(171,754,o),
(135,754,cs),
(99,754,o),
(79,735,o),
(79,699,cs)
);
}
);
width = 273;
}
);
unicode = 106;
},
{
glyphname = jdotless;
lastChange = "2023-09-06 20:29:53 +0000";
layers = (
{
layerId = m01;
shapes = (
{
closed = 1;
nodes = (
(100,0,l),
(100,-83,ls),
(100,-123,o),
(80,-146,o),
(44,-146,c),
(44,-216,l),
(125,-216,o),
(170,-168,o),
(170,-83,cs),
(170,0,l),
(169,0,l),
(169,550,l),
(99,550,l),
(99,0,l)
);
}
);
width = 253;
}
);
unicode = 567;
},
{
glyphname = k;
lastChange = "2023-09-05 08:57:16 +0000";
layers = (
{
layerId = m01;
shapes = (
{
closed = 1;
nodes = (
(518,0,l),
(249,301,l),
(526,550,l),
(416,550,l),
(156,303,l),
(156,750,l),
(86,750,l),
(86,0,l),
(156,0,l),
(156,299,l),
(418,0,l)
);
}
);
width = 538;
}
);
unicode = 107;
},
{
glyphname = l;
lastChange = "2023-09-05 08:57:16 +0000";
layers = (
{
layerId = m01;
shapes = (
{
closed = 1;
nodes = (
(156,0,l),
(156,750,l),
(86,750,l),
(86,0,l)
);
}
);
width = 242;
}
);
unicode = 108;
},
{
glyphname = m;
lastChange = "2023-09-05 08:57:16 +0000";
layers = (
{
layerId = m01;
shapes = (
{
closed = 1;
nodes = (
(514,0,l),
(514,373,l),
(558,447,o),
(619,488,o),
(685,488,cs),
(760,488,o),
(802,449,o),
(802,380,cs),
(802,0,l),
(872,0,l),
(872,380,ls),
(872,494,o),
(805,558,o),
(685,558,cs),
(615,558,o),
(554,521,o),
(514,454,cs),
(506,441,l),
(486,517,o),
(423,558,o),
(327,558,cs),
(257,558,o),
(196,521,o),
(156,454,c),
(156,551,l),
(86,551,l),
(86,0,l),
(156,0,l),
(156,373,l),
(200,447,o),
(261,488,o),
(327,488,cs),
(402,488,o),
(444,449,o),
(444,380,cs),
(444,0,l)
);
}
);
width = 958;
}
);
unicode = 109;
},
{
glyphname = n;
lastChange = "2023-09-05 08:57:16 +0000";
layers = (
{
layerId = m01;
shapes = (
{
closed = 1;
nodes = (
(156,0,l),
(156,373,l),
(200,447,o),
(261,488,o),
(327,488,cs),
(402,488,o),
(444,449,o),
(444,380,cs),
(444,0,l),
(514,0,l),
(514,380,ls),
(514,494,o),
(447,558,o),
(327,558,cs),
(257,558,o),
(196,521,o),
(156,454,c),
(156,551,l),
(86,551,l),
(86,0,l)
);
}
);
width = 600;
}
);
unicode = 110;
},
{
glyphname = o;
lastChange = "2023-09-05 08:57:16 +0000";
layers = (
{
layerId = m01;
shapes = (
{
closed = 1;
nodes = (
(452,-8,o),
(536,94,o),
(536,277,cs),
(536,459,o),
(452,560,o),
(300,560,cs),
(148,560,o),
(64,462,o),
(64,285,cs),
(64,97,o),
(148,-8,o),
(300,-8,cs)
);
},
{
closed = 1;
nodes = (
(134,417,o),
(193,490,o),
(300,490,cs),
(407,490,o),
(466,414,o),
(466,277,cs),
(466,139,o),
(407,62,o),
(300,62,cs),
(193,62,o),
(134,142,o),
(134,285,cs)
);
}
);
width = 600;
}
);
unicode = 111;
},
{
glyphname = oslash;
lastChange = "2023-09-06 20:25:28 +0000";
layers = (
{
layerId = m01;
shapes = (
{
ref = o;
},
{
closed = 1;
nodes = (
(44,0,l),
(119,0,l),
(556,550,l),
(481,550,l)
);
}
);
width = 600;
}
);
unicode = 248;
},
{
glyphname = oe;
lastChange = "2023-09-06 06:19:41 +0000";
layers = (
{
layerId = m01;
shapes = (
{
closed = 1;
nodes = (
(784,-8,o),
(854,18,o),
(901,65,c),
(901,145,l),
(848,92,o),
(777,62,o),
(704,62,cs),
(609,62,o),
(550,132,o),
(540,250,c),
(876,245,l),
(914,275,l),
(914,458,o),
(839,560,o),
(704,560,cs),
(552,560,o),
(478,460,o),
(478,280,cs),
(478,95,o),
(552,-8,o),
(704,-8,cs)
);
},
{
closed = 1;
nodes = (
(544,419,o),
(603,490,o),
(704,490,cs),
(790,490,o),
(840,424,o),
(843,305,c),
(538,300,l)
);
},
{
closed = 1;
nodes = (
(454,-8,o),
(528,94,o),
(528,277,cs),
(528,459,o),
(454,560,o),
(302,560,cs),
(150,560,o),
(66,462,o),
(66,285,cs),
(66,97,o),
(150,-8,o),
(302,-8,cs)
);
},
{
closed = 1;
nodes = (
(136,417,o),
(195,490,o),
(302,490,cs),
(409,490,o),
(468,414,o),
(468,277,cs),
(468,139,o),
(409,62,o),
(302,62,cs),
(195,62,o),
(136,142,o),
(136,285,cs)
);
}
);
width = 978;
}
);
unicode = 339;
},
{
glyphname = p;
lastChange = "2023-09-05 08:57:16 +0000";
layers = (
{
layerId = m01;
shapes = (
{
closed = 1;
nodes = (
(156,-200,l),
(156,56,l),
(191,15,o),
(242,-8,o),
(298,-8,cs),
(450,-8,o),
(534,91,o),
(534,270,cs),
(534,454,o),
(450,556,o),
(298,556,cs),
(244,556,o),
(194,541,o),
(156,514,c),
(156,550,l),
(86,550,l),
(86,-200,l)
);
},
{
closed = 1;
nodes = (
(156,453,l),
(191,474,o),
(240,486,o),
(298,486,cs),
(405,486,o),
(464,409,o),
(464,270,cs),
(464,136,o),
(405,62,o),
(298,62,cs),
(245,62,o),
(195,89,o),
(156,137,c)
);
}
);
width = 598;
}
);
unicode = 112;
},
{
glyphname = thorn;
lastChange = "2023-09-06 20:26:12 +0000";
layers = (
{
layerId = m01;
shapes = (
{
closed = 1;
nodes = (
(156,-200,l),
(156,56,l),
(191,15,o),
(242,-8,o),
(298,-8,cs),
(450,-8,o),
(534,91,o),
(534,270,cs),
(534,454,o),
(450,556,o),
(298,556,cs),
(244,556,o),
(194,541,o),
(156,514,c),
(156,750,l),
(86,750,l),
(86,-200,l)
);
},
{
closed = 1;
nodes = (
(156,453,l),
(191,474,o),
(240,486,o),
(298,486,cs),
(405,486,o),
(464,409,o),
(464,270,cs),
(464,136,o),
(405,62,o),
(298,62,cs),
(245,62,o),
(195,89,o),
(156,137,c)
);
}
);
width = 598;
}
);
unicode = 254;
},
{
glyphname = q;
lastChange = "2023-09-05 08:57:16 +0000";
layers = (
{
layerId = m01;
shapes = (
{
closed = 1;
nodes = (
(514,-200,l),
(514,550,l),
(444,550,l),
(444,514,l),
(406,541,o),
(356,556,o),
(302,556,cs),
(150,556,o),
(66,454,o),
(66,270,cs),
(66,91,o),
(150,-8,o),
(302,-8,cs),
(358,-8,o),
(409,25,o),
(444,66,c),
(444,-200,l)
);
},
{
closed = 1;
nodes = (
(136,409,o),
(195,486,o),
(302,486,cs),
(360,486,o),
(409,474,o),
(444,453,c),
(444,137,l),
(405,89,o),
(355,62,o),
(302,62,cs),
(195,62,o),
(136,136,o),
(136,270,cs)
);
}
);
width = 600;
}
);
unicode = 113;
},
{
glyphname = r;
lastChange = "2023-09-05 08:57:16 +0000";
layers = (
{
layerId = m01;
shapes = (
{
closed = 1;
nodes = (
(156,0,l),
(156,373,l),
(200,447,o),
(269,488,o),
(347,488,c),
(347,558,l),
(264,558,o),
(196,521,o),
(156,454,c),
(156,551,l),
(86,551,l),
(86,0,l)
);
}
);
width = 347;
}
);
unicode = 114;
},
{
glyphname = s;
lastChange = "2023-09-05 08:57:16 +0000";
layers = (
{
layerId = m01;
shapes = (
{
closed = 1;
nodes = (
(415,95,o),
(365,62,o),
(275,62,cs),
(188,62,o),
(139,95,o),
(139,153,c),
(69,153,l),
(69,50,o),
(143,-8,o),
(275,-8,cs),
(410,-8,o),
(485,50,o),
(485,153,cs),
(485,363,o),
(145,268,o),
(145,398,cs),
(145,456,o),
(191,489,o),
(275,489,cs),
(356,489,o),
(401,453,o),
(401,388,c),
(471,388,l),
(471,498,o),
(401,559,o),
(275,559,cs),
(146,559,o),
(75,501,o),
(75,398,cs),
(75,178,o),
(415,293,o),
(415,153,cs)
);
}
);
width = 554;
}
);
unicode = 115;
},
{
glyphname = germandbls;
lastChange = "2023-09-05 08:57:16 +0000";
layers = (
{
layerId = m01;
shapes = (
{
closed = 1;
nodes = (
(437,-8,o),
(505,53,o),
(505,163,cs),
(505,303,o),
(335,278,o),
(335,348,cs),
(335,418,o),
(472,402,o),
(472,542,cs),
(472,653,o),
(405,714,o),
(285,714,cs),
(157,714,o),
(86,656,o),
(86,553,cs),
(86,0,l),
(156,0,l),
(156,553,ls),
(156,611,o),
(202,644,o),
(285,644,cs),
(360,644,o),
(402,608,o),
(402,542,cs),
(402,441,o),
(265,478,o),
(265,348,cs),
(265,218,o),
(435,243,o),
(435,163,cs),
(435,98,o),
(392,62,o),
(314,62,cs),
(277,62,o),
(245,73,o),
(226,92,c),
(226,22,l),
(245,3,o),
(277,-8,o),
(314,-8,cs)
);
}
);
width = 569;
}
);
unicode = 223;
},
{
glyphname = t;
lastChange = "2023-09-05 08:57:16 +0000";
layers = (
{
layerId = m01;
shapes = (
{
closed = 1;
nodes = (
(318,0,l),
(318,70,l),
(264,70,ls),
(225,70,o),
(203,86,o),
(203,115,cs),
(203,480,l),
(287,480,l),
(287,550,l),
(203,550,l),
(203,678,l),
(133,678,l),
(133,550,l),
(51,550,l),
(51,480,l),
(133,480,l),
(133,115,ls),
(133,41,o),
(180,0,o),
(264,0,cs)
);
}
);
width = 367;
}
);
unicode = 116;
},
{
glyphname = u;
lastChange = "2023-09-06 18:35:45 +0000";
layers = (
{
layerId = m01;
shapes = (
{
closed = 1;
nodes = (
(356,-8,o),
(402,26,o),
(444,88,c),
(444,1,l),
(514,1,l),
(514,552,l),
(444,552,l),
(444,169,l),
(391,100,o),
(345,62,o),
(288,62,cs),
(213,62,o),
(156,101,o),
(156,172,cs),
(156,552,l),
(86,552,l),
(86,172,ls),
(86,56,o),
(168,-8,o),
(288,-8,cs)
);
}
);
width = 600;
}
);
unicode = 117;
},
{
glyphname = v;
lastChange = "2023-09-05 08:57:16 +0000";
layers = (
{
layerId = m01;
shapes = (
{
closed = 1;
nodes = (
(314,0,l),
(515,550,l),
(440,550,l),
(280,92,l),
(110,550,l),
(35,550,l),
(248,0,l)
);
}
);
width = 550;
}
);
unicode = 118;
},
{
glyphname = w;
lastChange = "2023-09-05 08:57:16 +0000";
layers = (
{
layerId = m01;
shapes = (
{
closed = 1;
nodes = (
(260,0,l),
(378,428,l),
(503,0,l),
(565,0,l),
(720,550,l),
(645,550,l),
(533,116,l),
(412,550,l),
(343,550,l),
(228,116,l),
(110,550,l),
(35,550,l),
(198,0,l)
);
}
);
width = 755;
}
);
unicode = 119;
},
{
glyphname = x;
lastChange = "2023-09-05 08:57:16 +0000";
layers = (
{
layerId = m01;
shapes = (
{
closed = 1;
nodes = (
(486,0,l),
(302,291,l),
(484,550,l),
(394,550,l),
(262,351,l),
(130,550,l),
(40,550,l),
(222,291,l),
(38,0,l),
(127,0,l),
(262,224,l),
(397,0,l)
);
}
);
width = 524;
}
);
unicode = 120;
},
{
glyphname = y;
lastChange = "2023-09-05 08:57:16 +0000";
layers = (
{
layerId = m01;
shapes = (
{
closed = 1;
nodes = (
(241,-5,o),
(230,-35,o),
(211,-83,cs),
(194,-123,o),
(163,-146,o),
(125,-146,c),
(125,-216,l),
(194,-216,o),
(250,-168,o),
(281,-83,cs),
(311,0,l),
(515,550,l),
(434,550,l),
(276,99,l),
(114,550,l),
(35,550,l),
(241,0,l)
);
}
);
width = 550;
}
);
unicode = 121;
},
{
glyphname = z;
lastChange = "2023-09-05 08:57:16 +0000";
layers = (
{
layerId = m01;
shapes = (
{
closed = 1;
nodes = (
(450,0,l),
(450,70,l),
(161,70,l),
(481,550,l),
(75,550,l),
(75,480,l),
(355,480,l),
(225,283,l),
(35,0,l)
);
}
);
width = 516;
}
);
unicode = 122;
},
{
glyphname = zero;
lastChange = "2023-09-06 18:13:02 +0000";
layers = (
{
layerId = m01;
shapes = (
{
closed = 1;
nodes = (
(452,-8,o),
(536,121,o),
(536,353,cs),
(536,582,o),
(452,710,o),
(300,710,cs),
(148,710,o),
(64,585,o),
(64,361,cs),
(64,124,o),
(148,-8,o),
(300,-8,cs)
);
},
{
closed = 1;
nodes = (
(134,540,o),
(193,640,o),
(300,640,cs),
(407,640,o),
(466,537,o),
(466,353,cs),
(466,166,o),
(407,62,o),
(300,62,cs),
(193,62,o),
(134,169,o),
(134,361,cs)
);
}
);
width = 600;
}
);
unicode = 48;
},
{
glyphname = one;
lastChange = "2023-09-06 18:11:45 +0000";
layers = (
{
layerId = m01;
shapes = (
{
closed = 1;
nodes = (
(374,0,l),
(374,700,l),
(304,700,l),
(304,0,l)
);
},
{
closed = 1;
nodes = (
(173,460,l),
(374,700,l),
(279,700,l),
(87,460,l)
);
}
);
width = 600;
}
);
unicode = 49;
},
{
glyphname = two;
lastChange = "2023-09-06 18:11:56 +0000";
layers = (
{
layerId = m01;
shapes = (
{
closed = 1;
nodes = (
(135,209,o),
(500,290,o),
(500,523,cs),
(500,643,o),
(423,709,o),
(285,709,cs),
(205,709,o),
(135,683,o),
(88,636,c),
(88,556,l),
(141,609,o),
(212,639,o),
(285,639,cs),
(382,639,o),
(430,601,o),
(430,523,cs),
(430,338,o),
(65,249,o),
(65,0,c),
(135,0,l)
);
},
{
closed = 1;
nodes = (
(79,0,l),
(536,0,l),
(536,80,l),
(139,80,l)
);
}
);
width = 600;
}
);
unicode = 50;
},
{
glyphname = three;
lastChange = "2023-09-06 18:12:03 +0000";
layers = (
{
layerId = m01;
shapes = (
{
closed = 1;
nodes = (
(391,344,o),
(486,410,o),
(486,530,cs),
(486,650,o),
(419,716,o),
(281,716,cs),
(201,716,o),
(131,690,o),
(84,643,c),
(84,563,l),
(137,616,o),
(208,646,o),
(281,646,cs),
(374,646,o),
(416,605,o),
(416,530,cs),
(416,449,o),
(346,404,o),
(202,404,c),
(202,344,l)
);
},
{
closed = 1;
nodes = (
(202,334,l),
(346,334,o),
(426,282,o),
(426,188,cs),
(426,107,o),
(374,62,o),
(281,62,cs),
(208,62,o),
(137,92,o),
(84,145,c),
(84,65,l),
(131,18,o),
(201,-8,o),
(281,-8,cs),
(419,-8,o),
(496,62,o),
(496,188,cs),
(496,320,o),
(391,394,o),
(202,394,c)
);
}
);
width = 600;
}
);
unicode = 51;
},
{
glyphname = four;
lastChange = "2023-09-06 18:14:32 +0000";
layers = (
{
layerId = m01;
shapes = (
{
closed = 1;
nodes = (
(456,0,l),
(456,700,l),
(386,700,l),
(386,0,l)
);
},
{
closed = 1;
nodes = (
(102,150,l),
(456,700,l),
(371,700,l),
(26,150,l)
);
},
{
closed = 1;
nodes = (
(36,150,l),
(535,150,l),
(535,230,l),
(96,230,l)
);
}
);
width = 600;
}
);
unicode = 52;
},
{
glyphname = five;
lastChange = "2023-09-06 18:12:21 +0000";
layers = (
{
layerId = m01;
shapes = (
{
closed = 1;
nodes = (
(487,629,l),
(487,709,l),
(100,709,l),
(160,629,l)
);
},
{
closed = 1;
nodes = (
(100,311,l),
(151,348,o),
(225,368,o),
(306,368,cs),
(406,368,o),
(461,318,o),
(461,228,cs),
(461,121,o),
(406,62,o),
(306,62,cs),
(233,62,o),
(155,99,o),
(89,165,c),
(89,85,l),
(149,25,o),
(226,-8,o),
(306,-8,cs),
(451,-8,o),
(531,76,o),
(531,228,cs),
(531,363,o),
(451,438,o),
(306,438,cs),
(234,438,o),
(161,419,o),
(100,386,c)
);
},
{
closed = 1;
nodes = (
(170,361,l),
(170,709,l),
(100,709,l),
(100,311,l)
);
}
);
width = 600;
}
);
unicode = 53;
},
{
glyphname = six;
lastChange = "2023-09-06 18:14:38 +0000";
layers = (
{
layerId = m01;
shapes = (
{
closed = 1;
nodes = (
(483,580,l),
(448,616,o),
(383,636,o),
(302,636,cs),
(200,636,o),
(143,538,o),
(143,363,cs),
(143,170,o),
(200,63,o),
(302,63,cs),
(402,63,o),
(458,123,o),
(458,231,cs),
(458,315,o),
(402,361,o),
(302,361,cs),
(209,361,o),
(158,310,o),
(158,219,c),
(88,219,l),
(88,355,o),
(164,431,o),
(302,431,cs),
(447,431,o),
(528,360,o),
(528,231,cs),
(528,78,o),
(447,-7,o),
(302,-7,cs),
(155,-7,o),
(73,125,o),
(73,363,cs),
(73,583,o),
(155,706,o),
(302,706,cs),
(377,706,o),
(441,687,o),
(483,654,c)
);
}
);
width = 600;
}
);
unicode = 54;
},
{
glyphname = seven;
lastChange = "2023-09-06 18:12:41 +0000";
layers = (
{
layerId = m01;
shapes = (
{
closed = 1;
nodes = (
(479,701,l),
(145,0,l),
(224,0,l),
(554,701,l)
);
},
{
closed = 1;
nodes = (
(544,701,l),
(85,701,l),
(85,621,l),
(484,621,l)
);
}
);
width = 600;
}
);
unicode = 55;
},
{
glyphname = eight;
lastChange = "2023-09-06 18:12:51 +0000";
layers = (
{
layerId = m01;
shapes = (
{
closed = 1;
nodes = (
(429,109,o),
(375,62,o),
(279,62,cs),
(185,62,o),
(140,-8,o),
(279,-8,cs),
(420,-8,o),
(499,64,o),
(499,193,cs),
(499,442,o),
(134,328,o),
(134,523,cs),
(134,598,o),
(186,639,o),
(279,639,cs),
(375,639,o),
(420,709,o),
(279,709,cs),
(141,709,o),
(64,643,o),
(64,523,cs),
(64,264,o),
(429,388,o),
(429,193,cs)
);
},
{
closed = 1;
nodes = (
(133,388,o),
(498,274,o),
(498,523,cs),
(498,643,o),
(421,709,o),
(283,709,cs),
(142,709,o),
(187,639,o),
(283,639,cs),
(376,639,o),
(428,598,o),
(428,523,cs),
(428,338,o),
(63,442,o),
(63,193,cs),
(63,64,o),
(142,-8,o),
(283,-8,cs),
(422,-8,o),
(377,62,o),
(283,62,cs),
(187,62,o),
(133,109,o),
(133,193,cs)
);
}
);
width = 550;
}
);
unicode = 56;
},
{
glyphname = nine;
lastChange = "2023-09-06 18:14:46 +0000";
layers = (
{
layerId = m01;
shapes = (
{
closed = 1;
nodes = (
(115,119,l),
(150,83,o),
(215,63,o),
(296,63,cs),
(398,63,o),
(455,161,o),
(455,336,cs),
(455,529,o),
(398,636,o),
(296,636,cs),
(196,636,o),
(140,576,o),
(140,468,cs),
(140,384,o),
(196,338,o),
(296,338,cs),
(389,338,o),
(440,389,o),
(440,480,c),
(510,480,l),
(510,344,o),
(434,268,o),
(296,268,cs),
(151,268,o),
(70,339,o),
(70,468,cs),
(70,621,o),
(151,706,o),
(296,706,cs),
(443,706,o),
(525,574,o),
(525,336,cs),
(525,116,o),
(443,-7,o),
(296,-7,cs),
(221,-7,o),
(157,12,o),
(115,45,c)
);
}
);
width = 600;
}
);
unicode = 57;
},
{
glyphname = period;
lastChange = "2023-09-06 21:15:47 +0000";
layers = (
{
layerId = m01;
shapes = (
{
closed = 1;
nodes = (
(138,20,o),
(166,-8,o),
(200,-8,cs),
(233,-8,o),
(261,20,o),
(261,54,cs),
(261,87,o),
(233,115,o),
(200,115,cs),
(166,115,o),
(138,87,o),
(138,54,cs)
);
}
);
width = 400;
}
);
unicode = 46;
},
{
glyphname = comma;
lastChange = "2023-09-06 21:26:10 +0000";
layers = (
{
layerId = m01;
shapes = (
{
closed = 1;
nodes = (
(155,-173,l),
(207,-181,l),
(288,38,l),
(208,50,l)
);
},
{
pos = (29,0);
ref = period;
}
);
width = 400;
}
);
unicode = 44;
},
{
glyphname = exclam;
lastChange = "2023-09-06 21:17:01 +0000";
layers = (
{
layerId = m01;
shapes = (
{
ref = period;
},
{
closed = 1;
nodes = (
(223,200,l),
(243,700,l),
(153,700,l),
(173,200,l)
);
}
);
width = 400;
}
);
unicode = 33;
},
{
glyphname = question;
lastChange = "2023-09-06 21:17:45 +0000";
layers = (
{
layerId = m01;
shapes = (
{
ref = period;
},
{
closed = 1;
nodes = (
(232,364,o),
(400,340,o),
(400,523,cs),
(400,643,o),
(323,709,o),
(185,709,cs),
(102,709,o),
(36,672,o),
(0,606,c),
(0,526,l),
(41,599,o),
(107,639,o),
(185,639,cs),
(278,639,o),
(330,598,o),
(330,523,cs),
(330,388,o),
(162,404,o),
(162,205,c),
(232,205,l)
);
}
);
width = 400;
}
);
unicode = 63;
},
{
glyphname = asterisk;
lastChange = "2023-09-06 21:18:58 +0000";
layers = (
{
layerId = m01;
shapes = (
{
closed = 1;
nodes = (
(186,525,l),
(214,525,l),
(234,700,l),
(166,700,l)
);
},
{
closed = 1;
nodes = (
(194,540,l),
(208,515,l),
(368,583,l),
(334,642,l)
);
},
{
closed = 1;
nodes = (
(208,535,l),
(194,511,l),
(334,409,l),
(368,468,l)
);
},
{
closed = 1;
nodes = (
(214,526,l),
(186,526,l),
(166,351,l),
(234,351,l)
);
},
{
closed = 1;
nodes = (
(206,511,l),
(192,536,l),
(32,468,l),
(66,409,l)
);
},
{
closed = 1;
nodes = (
(192,516,l),
(206,540,l),
(66,642,l),
(32,583,l)
);
}
);
width = 400;
}
);
unicode = 42;
},
{
glyphname = numbersign;
lastChange = "2023-09-06 21:19:09 +0000";
layers = (
{
layerId = m01;
shapes = (
{
closed = 1;
nodes = (
(103,0,l),
(158,0,l),
(232,700,l),
(177,700,l)
);
},
{
closed = 1;
nodes = (
(363,0,l),
(418,0,l),
(492,700,l),
(437,700,l)
);
},
{
closed = 1;
nodes = (
(75,503,l),
(69,448,l),
(555,448,l),
(561,503,l)
);
},
{
closed = 1;
nodes = (
(45,233,l),
(39,178,l),
(525,178,l),
(531,233,l)
);
}
);
width = 600;
}
);
unicode = 35;
},
{
glyphname = slash;
lastChange = "2023-09-06 18:33:32 +0000";
layers = (
{
layerId = m01;
shapes = (
{
closed = 1;
nodes = (
(133,-166,l),
(193,-166,l),
(467,700,l),
(407,700,l)
);
}
);
width = 600;
}
);
unicode = 47;
},
{
glyphname = backslash;
lastChange = "2023-09-06 18:33:47 +0000";
layers = (
{
layerId = m01;
shapes = (
{
closed = 1;
nodes = (
(133,700,l),
(407,-166,l),
(467,-166,l),
(193,700,l)
);
}
);
width = 600;
}
);
unicode = 92;
},
{
glyphname = hyphen;
lastChange = "2023-09-06 21:07:12 +0000";
layers = (
{
layerId = m01;
shapes = (
{
closed = 1;
nodes = (
(354,400,l),
(34,400,l),
(34,320,l),
(354,320,l)
);
}
);
width = 400;
}
);
unicode = 45;
},
{
glyphname = endash;
lastChange = "2023-09-06 19:05:45 +0000";
layers = (
{
layerId = m01;
shapes = (
{
closed = 1;
nodes = (
(564,330,l),
(36,330,l),
(36,250,l),
(564,250,l)
);
}
);
width = 600;
}
);
unicode = 8211;
},
{
glyphname = emdash;
lastChange = "2023-09-06 19:05:33 +0000";
layers = (
{
layerId = m01;
shapes = (
{
closed = 1;
nodes = (
(528,330,l),
(0,330,l),
(0,250,l),
(528,250,l)
);
}
);
width = 600;
}
);
unicode = 8212;
},
{
glyphname = underscore;
lastChange = "2023-09-06 19:06:24 +0000";
layers = (
{
layerId = m01;
shapes = (
{
closed = 1;
nodes = (
(600,-75,l),
(0,-75,l),
(0,-125,l),
(600,-125,l)
);
}
);
width = 600;
}
);
unicode = 95;
},
{
glyphname = parenleft;
lastChange = "2023-09-06 21:07:50 +0000";
layers = (
{
layerId = m01;
shapes = (
{
closed = 1;
nodes = (
(249,750,l),
(92,435,o),
(92,165,o),
(249,-150,c),
(309,-150,l),
(171,126,o),
(171,474,o),
(309,750,c)
);
}
);
width = 400;
}
);
unicode = 40;
},
{
glyphname = braceleft;
lastChange = "2023-09-06 18:56:07 +0000";
layers = (
{
layerId = m01;
shapes = (
{
closed = 1;
nodes = (
(331,701,o),
(278,662,o),
(278,593,cs),
(278,376,ls),
(278,320,o),
(241,289,o),
(175,289,c),
(175,259,l),
(280,259,o),
(338,301,o),
(338,376,cs),
(338,593,ls),
(338,630,o),
(370,651,o),
(425,651,c),
(425,701,l)
);
},
{
closed = 1;
nodes = (
(425,-103,l),
(370,-103,o),
(338,-82,o),
(338,-45,cs),
(338,172,ls),
(338,247,o),
(280,289,o),
(175,289,c),
(175,259,l),
(241,259,o),
(278,228,o),
(278,172,cs),
(278,-45,ls),
(278,-114,o),
(331,-153,o),
(425,-153,c)
);
}
);
width = 600;
}
);
unicode = 123;
},
{
glyphname = bracketleft;
lastChange = "2023-09-06 18:51:35 +0000";
layers = (
{
layerId = m01;
shapes = (
{
closed = 1;
nodes = (
(240,-152,l),
(440,-152,l),
(440,-92,l),
(300,-92,l),
(300,640,l),
(440,640,l),
(440,700,l),
(240,700,l)
);
}
);
width = 600;
}
);
unicode = 91;
},
{
glyphname = guilsinglleft;
lastChange = "2023-09-06 21:22:53 +0000";
layers = (
{
layerId = m01;
shapes = (
{
closed = 1;
nodes = (
(78,283,l),
(186,283,l),
(321,477,l),
(290,503,l)
);
},
{
closed = 1;
nodes = (
(321,89,l),
(186,283,l),
(78,283,l),
(290,63,l)
);
}
);
width = 400;
}
);
unicode = 8249;
},
{
glyphname = quotesingle;
lastChange = "2023-09-06 21:23:40 +0000";
layers = (
{
layerId = m01;
shapes = (
{
closed = 1;
nodes = (
(175,460,l),
(225,460,l),
(245,700,l),
(155,700,l)
);
}
);
width = 400;
}
);
unicode = 39;
},
{
glyphname = dieresiscomb;
lastChange = "2023-09-04 20:35:42 +0000";
layers = (
{
layerId = m01;
shapes = (
{
closed = 1;
nodes = (
(165,643,o),
(190,668,o),
(190,699,cs),
(190,729,o),
(165,754,o),
(135,754,cs),
(104,754,o),
(79,729,o),
(79,699,cs),
(79,668,o),
(104,643,o),
(135,643,cs)
);
},
{
closed = 1;
nodes = (
(351,643,o),
(376,668,o),
(376,699,cs),
(376,729,o),
(351,754,o),
(321,754,cs),
(290,754,o),
(265,729,o),
(265,699,cs),
(265,668,o),
(290,643,o),
(321,643,cs)
);
}
);
width = 600;
}
);
unicode = 776;
},
{
glyphname = dotaccentcomb;
lastChange = "2023-09-06 19:59:21 +0000";
layers = (
{
layerId = m01;
shapes = (
{
closed = 1;
nodes = (
(330,643,o),
(355,668,o),
(355,699,cs),
(355,729,o),
(330,754,o),
(300,754,cs),
(269,754,o),
(244,729,o),
(244,699,cs),
(244,668,o),
(269,643,o),
(300,643,cs)
);
}
);
width = 600;
}
);
unicode = 775;
},
{
glyphname = gravecomb;
lastChange = "2023-09-06 20:02:12 +0000";
layers = (
{
layerId = m01;
shapes = (
{
closed = 1;
nodes = (
(343,593,l),
(366,609,l),
(304,740,l),
(241,696,l)
);
},
{
closed = 1;
nodes = (
(259,679,o),
(284,678,o),
(298,694,cs),
(313,708,o),
(312,733,o),
(298,748,cs),
(283,762,o),
(259,762,o),
(244,747,cs),
(229,733,o),
(229,708,o),
(244,693,cs)
);
}
);
width = 600;
}
);
unicode = 768;
},
{
glyphname = acutecomb;
lastChange = "2023-09-06 20:01:55 +0000";
layers = (
{
layerId = m01;
shapes = (
{
closed = 1;
nodes = (
(295,739,l),
(233,608,l),
(256,592,l),
(358,695,l)
);
},
{
closed = 1;
nodes = (
(370,707,o),
(370,732,o),
(355,746,cs),
(340,761,o),
(316,761,o),
(301,747,cs),
(287,732,o),
(286,707,o),
(301,693,cs),
(315,677,o),
(340,678,o),
(355,692,cs)
);
}
);
width = 600;
}
);
unicode = 769;
},
{
glyphname = circumflexcomb;
lastChange = "2023-09-06 20:03:37 +0000";
layers = (
{
layerId = m01;
shapes = (
{
closed = 1;
nodes = (
(412,633,l),
(435,649,l),
(333,740,l),
(270,696,l)
);
},
{
closed = 1;
nodes = (
(288,679,o),
(313,678,o),
(327,694,cs),
(342,708,o),
(341,733,o),
(327,748,cs),
(312,762,o),
(288,762,o),
(273,747,cs),
(258,733,o),
(258,708,o),
(273,693,cs)
);
},
{
closed = 1;
nodes = (
(267,740,l),
(165,649,l),
(188,633,l),
(330,696,l)
);
},
{
closed = 1;
nodes = (
(342,708,o),
(342,733,o),
(327,747,cs),
(312,762,o),
(288,762,o),
(273,748,cs),
(259,733,o),
(258,708,o),
(273,694,cs),
(287,678,o),
(312,679,o),
(327,693,cs)
);
}
);
width = 600;
}
);
unicode = 770;
},
{
glyphname = ringcomb;
lastChange = "2023-09-06 20:07:08 +0000";
layers = (
{
layerId = m01;
shapes = (
{
closed = 1;
nodes = (
(238,632,o),
(264,606,o),
(300,606,cs),
(336,606,o),
(361,632,o),
(361,668,cs),
(361,704,o),
(336,729,o),
(300,729,cs),
(264,729,o),
(238,704,o),
(238,668,cs)
);
},
{
closed = 1;
nodes = (
(209,721,o),
(247,758,o),
(300,758,cs),
(353,758,o),
(390,721,o),
(390,668,cs),
(390,615,o),
(353,577,o),
(300,577,cs),
(247,577,o),
(209,615,o),
(209,668,cs)
);
}
);
width = 600;
}
);
unicode = 778;
},
{
glyphname = tildecomb;
lastChange = "2023-09-06 20:12:27 +0000";
layers = (
{
layerId = m01;
shapes = (
{
closed = 1;
nodes = (
(145,612,l),
(145,634,ls),
(145,693,o),
(184,734,o),
(238,734,cs),
(304,734,o),
(309,661,o),
(366,661,cs),
(402,661,o),
(405,703,o),
(405,727,c),
(455,727,l),
(455,717,ls),
(455,652,o),
(417,606,o),
(363,606,cs),
(292,606,o),
(288,680,o),
(235,680,cs),
(196,680,o),
(196,640,o),
(196,612,c)
);
}
);
width = 600;
}
);
unicode = 771;
},
{
glyphname = cedillacomb;
lastChange = "2023-09-06 20:12:20 +0000";
layers = (
{
layerId = m01;
shapes = (
{
closed = 1;
nodes = (
(276,-104,l),
(288,-104,ls),
(351,-104,o),
(386,-116,o),
(386,-137,cs),
(386,-162,o),
(367,-176,o),
(333,-176,cs),
(305,-176,o),
(281,-173,o),
(267,-168,c),
(255,-207,l),
(283,-220,o),
(311,-227,o),
(333,-227,cs),
(408,-227,o),
(450,-194,o),
(450,-134,cs),
(450,-88,o),
(413,-62,o),
(346,-62,c),
(373,7,l),
(312,6,l)
);
}
